<svg xmlns="http://www.w3.org/2000/svg" version="1.1" xmlns:xlink="http://www.w3.org/1999/xlink" xmlns:svgjs="http://svgjs.com/svgjs" width="22" height="14"><svg width="22" height="14" viewBox="0 0 22 14" fill="none" xmlns="http://www.w3.org/2000/svg">
<path d="M8.8196 2.27709C8.8196 1.83731 9.13877 1.46254 9.57294 1.39252L9.80007 1.35589C10.1033 1.30698 10.3263 1.0452 10.3263 0.738013V0.738013C10.3263 0.392358 10.0461 0.112149 9.70042 0.112149H1.78595C0.887357 0.112149 0.145585 0.81473 0.0968535 1.712L0.0473254 2.62394C0.0216141 3.09735 0.398558 3.49533 0.872666 3.49533V3.49533C1.22918 3.49533 1.54552 3.26674 1.65744 2.92825L1.8192 2.43902C2.01851 1.83625 2.56736 1.41762 3.20137 1.38477L3.71238 1.3583C5.02067 1.29052 6.1186 2.33304 6.1186 3.64309V4.9825C6.1186 5.82834 5.42372 6.50913 4.57805 6.49181L4.2126 6.48433C3.72542 6.47435 3.30929 6.13015 3.20812 5.65349L3.141 5.33723C3.0773 5.03709 2.8123 4.82243 2.50547 4.82243V4.82243C2.14666 4.82243 1.85579 5.1133 1.85579 5.47211V8.92883C1.85579 9.28299 2.1429 9.57009 2.49706 9.57009V9.57009C2.79848 9.57009 3.05922 9.36016 3.12355 9.06568L3.19968 8.71718C3.30609 8.23006 3.73099 7.87829 4.22942 7.86468L4.56464 7.85552C5.41591 7.83227 6.1186 8.51603 6.1186 9.36762V11.2829C6.1186 12.0756 5.50392 12.7325 4.71297 12.785L3.84828 12.8425C3.5439 12.8628 3.30735 13.1156 3.30735 13.4206V13.4206C3.30735 13.7406 3.56674 14 3.88672 14H9.63678C9.96684 14 10.2344 13.7324 10.2344 13.4024V13.4024C10.2344 13.1026 10.0123 12.8492 9.71506 12.8099L9.527 12.785C9.12216 12.7316 8.8196 12.3864 8.8196 11.978V2.27709Z" fill="#008000"></path>
<path d="M12.4087 2.21368C12.4087 1.80903 12.1182 1.46279 11.7197 1.39252L11.5513 1.36284C11.2502 1.30974 11.0306 1.04808 11.0306 0.742283V0.742283C11.0306 0.39427 11.3127 0.112149 11.6608 0.112149H13.8051C14.0624 0.112149 14.4605 0.0996879 14.9994 0.0747654C15.7099 0.0249218 16.353 0 16.9287 0C18.2027 0 19.2071 0.161994 19.9421 0.485981C20.6893 0.797508 21.216 1.25234 21.5223 1.85047C21.8408 2.43614 22 3.1838 22 4.09346C22 5.66355 21.5161 6.88474 20.5484 7.75701C19.593 8.62928 18.2639 9.06542 16.5612 9.06542V9.06542C15.7901 9.06542 15.1097 9.69157 15.1097 10.4628V11.457C15.1097 12.1535 15.6463 12.7323 16.3408 12.785L17.0339 12.8377C17.3373 12.8607 17.5718 13.1137 17.5718 13.418V13.418C17.5718 13.7394 17.3113 14 16.9898 14H11.5538C11.2243 14 10.9571 13.7328 10.9571 13.4033V13.4033C10.9571 13.1032 11.18 12.8498 11.4776 12.8115L11.6829 12.785C12.0979 12.7316 12.4087 12.3783 12.4087 11.9598V7.1028V2.21368ZM15.0913 6.37463C15.0913 7.21491 15.6842 7.90654 16.5245 7.90654V7.90654C17.3452 7.90654 18.0006 7.61994 18.4905 7.04673C18.9928 6.46106 19.2439 5.49533 19.2439 4.14953C19.2439 3.1028 19.0173 2.34268 18.564 1.86916C18.1231 1.38318 17.4432 1.14019 16.5245 1.14019C16.1815 1.14019 15.8263 1.16511 15.4588 1.21495V1.21495C15.2568 1.24431 15.0913 1.41782 15.0913 1.62196V6.37463Z" fill="#008000"></path>
</svg><style>@media (prefers-color-scheme: light) { :root { filter: none; } }
</style></svg>