<svg width="159" height="53" viewBox="0 0 159 53" fill="none" xmlns="http://www.w3.org/2000/svg">
<path d="M72.5506 8.29944L75.7301 7.79563V5.39286H54.3268L53.9391 12.4074H57.041L58.4757 8.14442L66.8508 7.71812V18.6856L61.0735 18.5693L60.3368 15.1589H57.8553V25.0025H60.298L61.0735 21.5146L66.8508 21.3596V31.4745L60.9184 31.862V34.1873H75.5362V31.862L72.5506 31.4745V8.29944Z" fill="#008000"/>
<path d="M80.1245 8.29944L77.2164 7.79563V5.39286H83.0713C83.6142 5.39286 84.4543 5.36703 85.5916 5.31535C87.0909 5.21201 88.448 5.16034 89.6629 5.16034C92.3513 5.16034 94.4709 5.49621 96.0219 6.16795C97.5987 6.81385 98.7102 7.75688 99.3564 8.99701C100.029 10.2113 100.365 11.7615 100.365 13.6475C100.365 16.9029 99.3435 19.4348 97.3014 21.2434C95.2852 23.0519 92.4805 23.9562 88.8874 23.9562C87.4657 23.9562 86.4447 23.9174 85.8243 23.8399V31.4745L91.02 31.862V34.1873H77.0614V31.862L80.1245 31.4745V19.887V8.29944ZM85.7855 21.3596C86.3801 21.4888 87.3882 21.5534 88.8099 21.5534C90.5418 21.5534 91.9247 20.9592 92.9587 19.7707C94.0185 18.5564 94.5485 16.5541 94.5485 13.7638C94.5485 11.5936 94.0702 10.0175 93.1138 9.03577C92.1832 8.02816 90.7486 7.52435 88.8099 7.52435C88.0861 7.52435 87.3365 7.57602 86.561 7.67937C86.1991 7.73104 85.9406 7.75688 85.7855 7.75688V21.3596Z" fill="#008000"/>
<path d="M34.8624 34.9297C43.2983 34.9297 50.1503 28.1068 50.1503 19.6739C50.1503 11.2409 43.2983 4.41803 34.8624 4.41803C26.4265 4.41803 19.5745 11.2409 19.5745 19.6739C19.5745 28.1068 26.4265 34.9297 34.8624 34.9297Z" stroke="#008000" stroke-opacity="0.75" stroke-width="6"/>
<path d="M20.7871 34.9297C29.223 34.9297 36.075 28.1068 36.075 19.6739C36.075 11.2409 29.223 4.41803 20.7871 4.41803C12.3512 4.41803 5.49915 11.2409 5.49915 19.6739C5.49915 28.1068 12.3512 34.9297 20.7871 34.9297Z" stroke="#008000" stroke-opacity="0.75" stroke-width="6"/>
<path d="M133.516 34.9297C141.952 34.9297 148.804 28.1068 148.804 19.6739C148.804 11.2409 141.952 4.41803 133.516 4.41803C125.081 4.41803 118.229 11.2409 118.229 19.6739C118.229 28.1068 125.081 34.9297 133.516 34.9297Z" stroke="#008000" stroke-opacity="0.75" stroke-width="6"/>
<path d="M119.441 34.9297C127.877 34.9297 134.729 28.1068 134.729 19.6739C134.729 11.2409 127.877 4.41803 119.441 4.41803C111.005 4.41803 104.153 11.2409 104.153 19.6739C104.153 28.1068 111.005 34.9297 119.441 34.9297Z" stroke="#008000" stroke-opacity="0.75" stroke-width="6"/>
<path d="M4.45239 52.8936V45.7045H8.79994V46.8463H5.96606V48.8008H8.10356V49.9328H5.96606V52.8936H4.45239Z" fill="#008000" fill-opacity="0.75"/>
<path d="M19.539 52.8936V45.7045H21.0672V52.8936H19.539Z" fill="#008000" fill-opacity="0.75"/>
<path d="M33.9808 52.8936H32.4671V45.7045C32.5316 45.7045 32.5945 45.7045 32.6557 45.7045C32.7202 45.7045 32.7831 45.7045 32.8443 45.7045C32.9088 45.7045 32.9733 45.7045 33.0378 45.7045C33.2828 45.7045 33.5681 45.6916 33.8937 45.6658C34.2193 45.64 34.6095 45.6271 35.064 45.6271C35.3993 45.6271 35.7217 45.6642 36.0312 45.7384C36.3407 45.8094 36.6164 45.9287 36.8582 46.0964C37.1032 46.2609 37.2966 46.4834 37.4385 46.764C37.5804 47.0446 37.6513 47.3929 37.6513 47.809C37.6513 48.2767 37.5739 48.6653 37.4192 48.9749C37.2644 49.2813 37.0468 49.5216 36.7663 49.6957C36.489 49.8667 36.1634 49.9812 35.7894 50.0392C35.6605 50.0586 35.5299 50.0779 35.3977 50.0973C35.2655 50.1134 35.0914 50.1279 34.8754 50.1408C34.6594 50.1505 34.3612 50.1553 33.9808 50.1553V52.8936ZM33.9808 49.091C34.0485 49.1007 34.1436 49.1088 34.2661 49.1152C34.3886 49.1217 34.5127 49.1249 34.6385 49.1249C34.7674 49.1249 34.8706 49.1249 34.948 49.1249C35.3574 49.1249 35.6637 49.0104 35.8668 48.7814C36.0731 48.5492 36.1763 48.238 36.1763 47.8477C36.1763 47.6284 36.1376 47.4333 36.0602 47.2623C35.9861 47.0882 35.8539 46.9527 35.6637 46.8559C35.4735 46.756 35.2075 46.706 34.8658 46.706C34.7142 46.706 34.5611 46.714 34.4063 46.7302C34.2516 46.7431 34.1097 46.764 33.9808 46.7931V49.091ZM36.4665 52.8936C36.4246 52.8387 36.3875 52.7774 36.3552 52.7097C36.3262 52.6388 36.2763 52.5259 36.2053 52.3711C36.1054 52.155 36.0119 51.9211 35.9248 51.6696C35.841 51.418 35.7524 51.1777 35.6589 50.9487C35.5654 50.7198 35.4574 50.5295 35.3349 50.3779C35.2123 50.2263 35.064 50.1441 34.8899 50.1312L35.3155 49.7973L36.2585 49.7345C36.4423 49.8151 36.6035 49.9538 36.7421 50.1505C36.884 50.344 37.0129 50.5682 37.129 50.823C37.2483 51.0778 37.3644 51.3406 37.4772 51.6115C37.5933 51.8824 37.7174 52.134 37.8496 52.3662C37.8979 52.4565 37.9463 52.5452 37.9946 52.6323C38.0462 52.7194 38.0962 52.8065 38.1446 52.8936H36.4665Z" fill="#008000" fill-opacity="0.75"/>
<path d="M50.7939 52.971C50.4618 52.971 50.1475 52.9468 49.8509 52.8984C49.5543 52.85 49.298 52.792 49.082 52.7242C48.866 52.6565 48.7128 52.5952 48.6226 52.5404L48.8498 51.3406C48.9691 51.4116 49.1255 51.4825 49.3189 51.5535C49.5156 51.6212 49.7316 51.6793 49.967 51.7276C50.2023 51.7728 50.4393 51.7954 50.6778 51.7954C51.0615 51.7954 51.3468 51.7357 51.5338 51.6164C51.7208 51.497 51.8143 51.3051 51.8143 51.0407C51.8143 50.8536 51.7627 50.6972 51.6596 50.5714C51.5564 50.4424 51.3936 50.3166 51.1711 50.194C50.9519 50.0715 50.6666 49.9264 50.3151 49.7586C50.0153 49.6135 49.7332 49.441 49.4688 49.241C49.2045 49.041 48.9901 48.8024 48.8257 48.525C48.6612 48.2476 48.579 47.9235 48.579 47.5526C48.579 47.2172 48.6435 46.9285 48.7725 46.6866C48.9047 46.4415 49.0852 46.2415 49.3141 46.0867C49.543 45.9287 49.8074 45.8126 50.1072 45.7384C50.4103 45.6642 50.7343 45.6271 51.0792 45.6271C51.5757 45.6271 51.9836 45.6739 52.3027 45.7674C52.6219 45.861 52.8444 45.948 52.9701 46.0287L52.7138 47.1801C52.5623 47.0704 52.3527 46.9721 52.0851 46.885C51.8175 46.7947 51.5112 46.7495 51.1663 46.7495C50.9374 46.7495 50.7375 46.7769 50.5666 46.8318C50.399 46.8866 50.2684 46.9672 50.1749 47.0736C50.0814 47.1769 50.0347 47.3042 50.0347 47.4558C50.0347 47.6364 50.0782 47.7913 50.1652 47.9203C50.2555 48.0461 50.3974 48.1686 50.5908 48.2879C50.7842 48.404 51.0357 48.5379 51.3452 48.6895C51.6257 48.8217 51.8852 48.9604 52.1238 49.1055C52.3624 49.2474 52.5719 49.4039 52.7525 49.5748C52.933 49.7457 53.0733 49.9409 53.1732 50.1602C53.2732 50.3795 53.3231 50.6311 53.3231 50.9149C53.3231 51.3471 53.2216 51.718 53.0185 52.0276C52.8154 52.334 52.5236 52.5678 52.1431 52.7291C51.7659 52.8903 51.3162 52.971 50.7939 52.971Z" fill="#008000" fill-opacity="0.75"/>
<path d="M65.6158 52.8936V46.8656H63.5702V45.7045H69.1848V46.8656H67.1392V52.8936H65.6158Z" fill="#008000" fill-opacity="0.75"/>
<path d="M79.8133 53C79.5651 53 79.3587 52.9145 79.1943 52.7436C79.0299 52.5726 78.946 52.3614 78.9428 52.1098C78.9428 51.9324 78.9847 51.7696 79.0686 51.6212C79.1556 51.4728 79.2701 51.3535 79.4119 51.2632C79.557 51.1729 79.715 51.1277 79.8858 51.1277C80.1567 51.1277 80.3678 51.2148 80.5194 51.389C80.6709 51.5599 80.7483 51.768 80.7515 52.0131C80.7547 52.1905 80.7128 52.3549 80.6257 52.5065C80.5419 52.6549 80.4291 52.7742 80.2872 52.8645C80.1454 52.9548 79.9874 53 79.8133 53Z" fill="#008000" fill-opacity="0.75"/>
<path d="M91.8496 52.8936V45.7045H92.4638C92.7797 45.7045 93.0941 45.6916 93.4068 45.6658C93.7195 45.64 94.0468 45.6271 94.3885 45.6271C94.943 45.6271 95.4186 45.7094 95.8151 45.8739C96.2117 46.0351 96.5163 46.2964 96.7291 46.6576C96.9451 47.0188 97.0531 47.4945 97.0531 48.0848C97.0531 48.9072 96.8065 49.5442 96.3132 49.9957C95.8232 50.4472 95.1123 50.673 94.1806 50.673C93.9775 50.673 93.8114 50.6714 93.6825 50.6682C93.5567 50.6649 93.4519 50.6633 93.3681 50.6633V52.8936H91.8496ZM93.3681 49.5313C93.4906 49.5474 93.6164 49.5587 93.7453 49.5651C93.8775 49.5716 94.0129 49.5748 94.1516 49.5748C94.4095 49.5748 94.6448 49.5313 94.8576 49.4442C95.0736 49.3571 95.2445 49.2055 95.3702 48.9894C95.4992 48.7733 95.5637 48.4702 95.5637 48.0799C95.5637 47.6219 95.4444 47.272 95.2058 47.0301C94.9672 46.7882 94.6077 46.6753 94.1274 46.6915C94.0049 46.6947 93.8759 46.7011 93.7405 46.7108C93.6051 46.7205 93.481 46.7366 93.3681 46.7592V49.5313Z" fill="#008000" fill-opacity="0.75"/>
<path d="M108.113 52.8936H106.522L109.124 45.6416H110.759L113.356 52.8936H111.74L110.149 47.8042L109.927 46.9721L109.7 47.8042L108.113 52.8936ZM107.997 51.3696L108.196 50.2908H111.494L111.692 51.3696H107.997Z" fill="#008000" fill-opacity="0.75"/>
<path d="M123.919 52.8936V45.7045H125.447V52.8936H123.919Z" fill="#008000" fill-opacity="0.75"/>
<path d="M136.847 52.8936V45.7045H138.249L140.943 49.957L141.881 51.8292H141.548L141.33 49.4152V45.7045H142.713V52.8936H141.214L138.641 48.7717L137.563 46.6431H137.969L138.22 49.2603V52.8936H136.847Z" fill="#008000" fill-opacity="0.75"/>
<path d="M155.431 52.8936V46.8656H153.385V45.7045H159V46.8656H156.954V52.8936H155.431Z" fill="#008000" fill-opacity="0.75"/>
</svg>
