<svg xmlns="http://www.w3.org/2000/svg" xmlns:xlink="http://www.w3.org/1999/xlink" width="120" height="120" viewBox="0 0 120 120"><defs><style>.a{fill:#212121;}.b{fill:url(#a);}.c,.d{fill:#0ccd6a;}.c{opacity:0.4;}</style><radialGradient id="a" cx="0.5" cy="0.5" r="0.9" gradientUnits="objectBoundingBox"><stop offset="0" stop-color="#0cce6b"/><stop offset="1" stop-color="#066736"/></radialGradient></defs><circle class="a" cx="60" cy="60" r="60"/><path class="b" d="M57.2,114.393A57.211,57.211,0,0,1,34.933,4.495,57.211,57.211,0,0,1,79.46,109.9,56.839,56.839,0,0,1,57.2,114.393Zm0-104.3a47.1,47.1,0,1,0,47.1,47.1A47.156,47.156,0,0,0,57.2,10.093Z" transform="translate(2.804 2.804)"/><g transform="translate(39.533 31.803)"><path class="c" d="M40.935,3.667V29.339H0V3.667A3.546,3.546,0,0,1,3.411,0H37.523A3.546,3.546,0,0,1,40.935,3.667Z" transform="translate(0 0)"/><path class="d" d="M0,288v3.378a6.789,6.789,0,0,0,6.822,6.756h6.822v6.756a6.823,6.823,0,0,0,13.645,0v-6.756h6.822a6.789,6.789,0,0,0,6.822-6.756V288Zm20.467,19.423a2.534,2.534,0,1,1,2.558-2.533A2.546,2.546,0,0,1,20.467,307.423Z" transform="translate(0 -255.283)"/></g></svg>