<svg xmlns="http://www.w3.org/2000/svg" xmlns:xlink="http://www.w3.org/1999/xlink" width="120" height="120" viewBox="0 0 120 120"><defs><style>.a{fill:#212121;}.b{fill:url(#a);}.c,.d{fill:#0ccd6a;}.c{opacity:0.4;}</style><radialGradient id="a" cx="0.5" cy="0.5" r="0.9" gradientUnits="objectBoundingBox"><stop offset="0" stop-color="#0cce6b"/><stop offset="1" stop-color="#066736"/></radialGradient></defs><circle class="a" cx="60" cy="60" r="60"/><path class="b" d="M57,114A57.015,57.015,0,0,1,34.813,4.479,57.015,57.015,0,0,1,79.187,109.521,56.643,56.643,0,0,1,57,114ZM57,6.059A50.941,50.941,0,1,0,107.942,57,51,51,0,0,0,57,6.059Z" transform="translate(3 3)"/><g transform="translate(39.533 31.803)"><path class="c" d="M40.935,3.187V25.5H0V3.187A3.3,3.3,0,0,1,3.411,0H37.523A3.3,3.3,0,0,1,40.935,3.187Z" transform="translate(0 0)"/><path class="d" d="M0,288v3.378a6.789,6.789,0,0,0,6.822,6.756h6.822v6.756a6.823,6.823,0,0,0,13.645,0v-6.756h6.822a6.789,6.789,0,0,0,6.822-6.756V288Zm20.467,19.423a2.534,2.534,0,1,1,2.558-2.533A2.546,2.546,0,0,1,20.467,307.423Z" transform="translate(0 -255.283)"/></g><g transform="translate(73.6 30)"><rect class="a" width="4" height="20" rx="2" transform="translate(-0.6)"/></g><g transform="translate(65.8 29.693)"><rect class="a" width="4" height="15" rx="2" transform="translate(0.2 0.307)"/></g><g transform="translate(60 30)"><rect class="a" width="4" height="9" rx="2" transform="translate(-1)"/></g></svg>